<svg width="188" height="66" viewBox="0 0 188 66" fill="none" xmlns="http://www.w3.org/2000/svg">
<path fill-rule="evenodd" clip-rule="evenodd" d="M83.1303 63.3831V63.3125C83.1122 63.2647 83.0819 63.2255 83.0386 63.1941L82.8682 63.0513H83.7186L83.7705 63.0984C83.902 63.1863 84.0067 63.2804 84.0855 63.3831H83.1303ZM82.1752 62.4356H83.0248L83.4435 62.8145H82.6069L82.1752 62.4356ZM81.4684 61.8183H82.3188L82.8024 62.245H81.9529L81.4684 61.8183ZM80.7745 61.201H81.6258L82.1614 61.6755H81.3109L80.7745 61.201ZM80.932 60.5844L81.5212 61.1068H80.6698L80.0824 60.5844H80.932ZM78.6428 59.3153C78.468 59.2047 78.3391 59.0745 78.2561 58.9231C78.1739 58.7733 78.1324 58.6195 78.1324 58.4611C78.1324 58.3262 78.1609 58.1967 78.2172 58.0697C78.2742 57.9434 78.3616 57.8304 78.4793 57.7308C78.597 57.6328 78.7414 57.5535 78.9101 57.4947C79.0806 57.4351 79.2839 57.4053 79.5192 57.4053H85.3278L85.1046 58.8642H79.6109C79.5149 58.8642 79.4353 58.8846 79.3747 58.9231C79.3142 58.9631 79.2839 59.0109 79.2839 59.0666C79.2839 59.1294 79.3185 59.1811 79.3886 59.2196L80.8792 60.5366H80.0288L78.6428 59.3153ZM84.2412 63.6679C84.268 63.7793 84.281 63.8773 84.281 63.9644H77.3347L77.3736 63.6679H84.2412ZM84.2152 64.2734C84.1979 64.3205 84.178 64.366 84.1573 64.4099C84.1348 64.4531 84.1062 64.4946 84.0716 64.5346H77.243L77.2819 64.2734H84.2152ZM83.5871 64.89C83.4037 64.9692 83.1736 65.0084 82.8941 65.0084H77.1772L77.1902 64.89H83.5871Z" fill="white"/>
<mask id="mask0_72_317" style="mask-type:alpha" maskUnits="userSpaceOnUse" x="85" y="57" width="10" height="9">
<path d="M85.5366 57.4058H94.0013V65.0085H85.5366V57.4058Z" fill="white"/>
</mask>
<g mask="url(#mask0_72_317)">
<path fill-rule="evenodd" clip-rule="evenodd" d="M92.1957 60.5841H93.5038L93.4121 61.1065H92.117L92.1957 60.5841ZM92.104 61.2014H93.3991L93.3334 61.6752H92.0252L92.104 61.2014ZM92.0123 61.818H93.3074L93.2425 62.2447H91.9465L92.0123 61.818ZM91.9076 62.4353H93.2157L93.1638 62.8142H91.8548L91.9076 62.4353ZM91.8167 63.0511H93.124L93.0721 63.3829H91.7631L91.8167 63.0511ZM91.7112 63.6684H93.0193L92.9804 63.9649H91.6723L91.7112 63.6684ZM91.6204 64.2731H92.9276L92.8887 64.5343H91.5806L91.6204 64.2731ZM91.5148 65.0089L91.5287 64.8905H92.8359L92.8238 65.0089H91.5148ZM92.6923 57.4058H94.0013L93.5038 60.5363H87.9833L87.5905 59.7895H92.3255L92.6923 57.4058ZM87.7869 57.4058L87.2894 60.5363H86.2166L86.7141 57.4058H87.7869ZM86.2166 60.5841H87.2894L87.1977 61.1065H86.1249L86.2166 60.5841ZM86.1128 61.2014H87.1847L87.1198 61.6752H86.0471L86.1128 61.2014ZM86.0202 61.818H87.0939L87.0281 62.2447H85.9554L86.0202 61.818ZM85.9294 62.4353H87.0013L86.9494 62.8142H85.8766L85.9294 62.4353ZM85.8368 63.0511H86.9105L86.8577 63.3829H85.7849L85.8368 63.0511ZM85.733 63.6684H86.8058L86.7669 63.9649H85.6932L85.733 63.6684ZM85.6413 64.2731H86.7141L86.6743 64.5343H85.6024L85.6413 64.2731ZM85.5366 65.0089L85.5496 64.8905H86.6224L86.6094 65.0089H85.5366Z" fill="white"/>
</g>
<path fill-rule="evenodd" clip-rule="evenodd" d="M96.3425 60.5366H94.8778L95.3744 57.4053H96.8399L96.3425 60.5366ZM94.8778 60.5844H96.3425L96.2516 61.1068H94.7861L94.8778 60.5844ZM94.7731 61.201H96.2386L96.1738 61.6755H94.7073L94.7731 61.201ZM94.6814 61.8183H96.1461L96.0803 62.245H94.6156L94.6814 61.8183ZM94.5897 62.4348H96.0552L96.0025 62.8145H94.5369L94.5897 62.4348ZM94.498 63.0513H95.9635L95.9116 63.3831H94.4461L94.498 63.0513ZM94.3933 63.6679H95.8588L95.8199 63.9644H94.3543L94.3933 63.6679ZM94.3024 64.2734H95.7671L95.7273 64.5346H94.2635L94.3024 64.2734ZM94.1978 65.0084L94.2099 64.89H95.6754L95.6625 65.0084H94.1978Z" fill="white"/>
<mask id="mask1_72_317" style="mask-type:alpha" maskUnits="userSpaceOnUse" x="97" y="57" width="9" height="9">
<path d="M97.0347 57.4058H105.16V65.0085H97.0347V57.4058Z" fill="white"/>
</mask>
<g mask="url(#mask1_72_317)">
<path fill-rule="evenodd" clip-rule="evenodd" d="M101.34 60.5841H102.19L101.314 61.1065H100.462L101.34 60.5841ZM100.307 61.2014H101.156L100.358 61.6752H99.5211L100.307 61.2014ZM98.906 62.0431L99.2858 61.818H100.122L99.7426 62.0431H98.906ZM98.213 57.4058H104.048C104.431 57.4058 104.712 57.4826 104.89 57.6364C105.07 57.7909 105.16 57.9752 105.16 58.1878C105.16 58.3941 105.087 58.5996 104.944 58.8051C104.799 59.0106 104.593 59.1808 104.322 59.3158L102.268 60.5363H101.418L103.629 59.2201C103.725 59.1573 103.773 59.0899 103.773 59.0185C103.773 58.9165 103.686 58.8639 103.511 58.8639H99.0634L98.8013 60.5363H97.7164L98.213 57.4058ZM97.7164 60.5841H98.7892L98.7105 61.1065H97.6238L97.7164 60.5841ZM97.6109 61.2014H98.6966L98.6188 61.6752H97.546L97.6109 61.2014ZM97.52 61.818H98.6049L98.54 62.2447H97.4543L97.52 61.818ZM97.4283 62.4353H98.5011L98.4483 62.8142H97.3755L97.4283 62.4353ZM97.3366 63.051H98.4085L98.3575 63.3828H97.2847L97.3366 63.051ZM97.2319 63.6684H98.3047L98.2658 63.9649H97.193L97.2319 63.6684ZM97.1402 64.2731H98.213L98.1732 64.5343H97.1021L97.1402 64.2731ZM97.0347 65.0089L97.0485 64.8905H98.1213L98.1083 65.0089H97.0347Z" fill="white"/>
</g>
<mask id="mask2_72_317" style="mask-type:alpha" maskUnits="userSpaceOnUse" x="105" y="57" width="9" height="9">
<path d="M105.16 57.4058H113.284V65.0085H105.16V57.4058Z" fill="white"/>
</mask>
<g mask="url(#mask2_72_317)">
<path fill-rule="evenodd" clip-rule="evenodd" d="M109.465 60.5841H110.314L109.439 61.1065H108.587L109.465 60.5841ZM108.431 61.2014H109.28L108.483 61.6752H107.645L108.431 61.2014ZM107.031 62.0431L107.41 61.818H108.247L107.868 62.0431H107.031ZM106.337 57.4058H112.173C112.556 57.4058 112.836 57.4826 113.015 57.6364C113.194 57.7909 113.284 57.9752 113.284 58.1878C113.284 58.3941 113.212 58.5996 113.069 58.8051C112.924 59.0106 112.718 59.1808 112.446 59.3158L110.393 60.5363H109.543L111.754 59.2201C111.849 59.1573 111.897 59.0899 111.897 59.0185C111.897 58.9165 111.81 58.864 111.635 58.864H107.188L106.925 60.5363H105.841L106.337 57.4058ZM105.841 60.5841H106.913L106.835 61.1065H105.749L105.841 60.5841ZM105.736 61.2014H106.822L106.743 61.6752H105.67L105.736 61.2014ZM105.644 61.818H106.73L106.664 62.2447H105.578L105.644 61.818ZM105.552 62.4353H106.625L106.572 62.8142H105.5L105.552 62.4353ZM105.461 63.0511H106.534L106.482 63.3829H105.409L105.461 63.0511ZM105.357 63.6684H106.429L106.39 63.9649H105.317L105.357 63.6684ZM105.265 64.2731H106.337L106.298 64.5343H105.226L105.265 64.2731ZM105.16 65.0089L105.173 64.8905H106.245L106.233 65.0089H105.16Z" fill="white"/>
</g>
<path fill-rule="evenodd" clip-rule="evenodd" d="M115.416 60.5366H113.951L114.448 57.4053H115.913L115.416 60.5366ZM113.951 60.5844H115.416L115.325 61.1068H113.86L113.951 60.5844ZM113.847 61.201H115.312L115.247 61.6755H113.781L113.847 61.201ZM113.755 61.8183H115.22L115.154 62.245H113.689L113.755 61.8183ZM113.663 62.4348H115.128L115.076 62.8145H113.611L113.663 62.4348ZM113.572 63.0513H115.037L114.985 63.3831H113.52L113.572 63.0513ZM113.467 63.6679H114.933L114.894 63.9644H113.428L113.467 63.6679ZM113.376 64.2734H114.841L114.801 64.5346H113.337L113.376 64.2734ZM113.271 65.0084L113.284 64.89H114.749L114.736 65.0084H113.271Z" fill="white"/>
<mask id="mask3_72_317" style="mask-type:alpha" maskUnits="userSpaceOnUse" x="116" y="57" width="9" height="9">
<path d="M116.108 57.4056H124.887V65.0085H116.108V57.4056Z" fill="white"/>
</mask>
<g mask="url(#mask3_72_317)">
<path fill-rule="evenodd" clip-rule="evenodd" d="M123.579 57.4056H124.887L124.39 60.5369H123.082L123.579 57.4056ZM123.082 60.584H124.39L124.299 61.1064H123.003L123.082 60.584ZM122.99 61.2013H124.285L124.22 61.6751H122.912L122.99 61.2013ZM122.899 61.8178H124.194L124.128 62.2445H122.833L122.899 61.8178ZM122.807 62.4352H124.102L124.05 62.8148H122.741L122.807 62.4352ZM122.703 63.0509H124.011L123.958 63.3835H122.651L122.703 63.0509ZM122.402 65.0088L122.311 64.8903H123.723L123.71 65.0088H122.402ZM121.852 64.273H123.814L123.775 64.5342H122.048L121.852 64.273ZM122.571 63.9294L122.611 63.6682H123.906L123.867 63.9647H121.63L121.407 63.6682H122.376L122.571 63.9294ZM120.95 63.0509H121.905L122.153 63.3835H121.198L120.95 63.0509ZM120.492 62.4352H121.446L121.734 62.8148H120.766L120.492 62.4352ZM120.034 61.8178H120.989L121.303 62.2445H120.348L120.034 61.8178ZM119.575 61.2013H120.531L120.884 61.6751H119.928L119.575 61.2013ZM120.06 60.584L120.453 61.1064H119.51L119.118 60.584H120.06ZM117.287 57.4056H118.36L118.242 58.1531L120.034 60.5369H119.091L118.084 59.1729L117.862 60.5369H116.789L117.287 57.4056ZM116.789 60.584H117.862L117.77 61.1064H116.698L116.789 60.584ZM116.685 61.2013H117.757L117.692 61.6751H116.62L116.685 61.2013ZM116.594 61.8178H117.666L117.6 62.2445H116.528L116.594 61.8178ZM116.501 62.4352H117.575L117.522 62.8148H116.449L116.501 62.4352ZM116.41 63.0509H117.482L117.431 63.3835H116.358L116.41 63.0509ZM116.306 63.6682H117.378L117.34 63.9647H116.267L116.306 63.6682ZM116.214 64.273H117.287L117.247 64.5342H116.175L116.214 64.273ZM116.108 65.0088L116.122 64.8903H117.194L117.181 65.0088H116.108Z" fill="white"/>
</g>
<mask id="mask4_72_317" style="mask-type:alpha" maskUnits="userSpaceOnUse" x="125" y="57" width="9" height="9">
<path d="M125.255 57.4058H133.822V65.0085H125.255V57.4058Z" fill="white"/>
</mask>
<g mask="url(#mask4_72_317)">
<path fill-rule="evenodd" clip-rule="evenodd" d="M132.449 60.5841H133.313L133.234 61.1065H132.372L132.449 60.5841ZM132.358 61.2014H133.222L133.143 61.6752H132.279L132.358 61.2014ZM132.266 61.818H133.129L133.064 62.2447H132.201L132.266 61.818ZM132.161 62.4353H133.025L132.972 62.8142H132.109L132.161 62.4353ZM132.071 63.051H132.934L132.881 63.3828H132.018L132.071 63.051ZM133.326 60.5363H132.463L132.475 60.4539H127.792L127.478 59.7895H133.443L133.326 60.5363ZM126.248 57.4058H133.822L133.601 58.8639H126.889L126.614 60.5363H125.751L126.248 57.4058ZM125.751 60.5841H126.614L126.522 61.1065H125.66L125.751 60.5841ZM126.169 65.0089C125.961 65.0089 125.786 64.9697 125.647 64.8905H132.646L132.632 65.0089H126.169ZM125.647 61.2014H126.51L126.445 61.6752H125.582L125.647 61.2014ZM125.555 61.818H126.419L126.354 62.2447H125.489L125.555 61.818ZM125.463 62.4353H126.328L126.261 62.8142H125.411L125.463 62.4353ZM126.222 63.1114C126.222 63.1264 126.22 63.1405 126.216 63.1522C126.211 63.164 126.209 63.1773 126.209 63.1938C126.209 63.2566 126.227 63.3201 126.261 63.3828H125.32L125.372 63.051H126.222V63.1114ZM125.346 64.5343C125.302 64.4622 125.276 64.3759 125.267 64.2731H132.737L132.698 64.5343H125.346ZM125.255 63.9649V63.8284C125.255 63.7774 125.258 63.7233 125.267 63.6684H132.828L132.79 63.9649H125.255Z" fill="white"/>
</g>
<mask id="mask5_72_317" style="mask-type:alpha" maskUnits="userSpaceOnUse" x="136" y="57" width="10" height="9">
<path d="M136.949 57.4058H145.073V65.0085H136.949V57.4058Z" fill="white"/>
</mask>
<g mask="url(#mask5_72_317)">
<path fill-rule="evenodd" clip-rule="evenodd" d="M141.254 60.5841H142.103L141.228 61.1065H140.376L141.254 60.5841ZM140.22 61.2014H141.07L140.272 61.6752H139.434L140.22 61.2014ZM138.82 62.0431L139.199 61.818H140.036L139.657 62.0431H138.82ZM138.126 57.4058H143.962C144.345 57.4058 144.626 57.4826 144.804 57.6364C144.984 57.7909 145.073 57.9752 145.073 58.1878C145.073 58.3941 145.002 58.5996 144.858 58.8051C144.713 59.0106 144.507 59.1808 144.235 59.3158L142.182 60.5363H141.332L143.543 59.2201C143.639 59.1573 143.687 59.0899 143.687 59.0185C143.687 58.9165 143.599 58.864 143.425 58.864H138.978L138.715 60.5363H137.63L138.126 57.4058ZM137.63 60.5841H138.702L138.625 61.1065H137.538L137.63 60.5841ZM137.525 61.2014H138.611L138.532 61.6752H137.46L137.525 61.2014ZM137.434 61.818H138.519L138.454 62.2447H137.367L137.434 61.818ZM137.342 62.4353H138.414L138.362 62.8142H137.29L137.342 62.4353ZM137.25 63.0511H138.323L138.271 63.3829H137.199L137.25 63.0511ZM137.146 63.6684H138.219L138.179 63.9649H137.106L137.146 63.6684ZM137.054 64.2731H138.126L138.087 64.5343H137.015L137.054 64.2731ZM136.949 65.0089L136.962 64.8905H138.034L138.022 65.0089H136.949Z" fill="white"/>
</g>
<mask id="mask6_72_317" style="mask-type:alpha" maskUnits="userSpaceOnUse" x="145" y="57" width="10" height="9">
<path d="M145.086 57.4055H154.649V65.0084H145.086V57.4055Z" fill="white"/>
</mask>
<g mask="url(#mask6_72_317)">
<path fill-rule="evenodd" clip-rule="evenodd" d="M153.224 57.4055H154.649L151.013 60.5368H149.547L153.224 57.4055ZM149.494 60.5839H150.961L150.358 61.1063H148.88L149.494 60.5839ZM148.775 61.2012H150.253L149.704 61.675H148.213L148.775 61.2012ZM148.043 61.8177H149.534L149.038 62.2445H147.546L148.043 61.8177ZM147.324 62.4351H148.814L148.383 62.8147H146.878L147.324 62.4351ZM146.604 63.0508H148.108L147.716 63.3834H146.211L146.604 63.0508ZM146.263 57.4055H147.009L146.512 60.5368H145.766L146.263 57.4055ZM145.766 60.5839H146.512L146.433 61.1063H145.675L145.766 60.5839ZM145.663 61.2012H146.421L146.343 61.675H145.597L145.663 61.2012ZM145.57 61.8177H146.33L146.263 62.2445H145.504L145.57 61.8177ZM145.478 62.4351H146.237L146.172 62.8147H145.426L145.478 62.4351ZM145.387 63.0508H146.133L146.08 63.3834H145.335L145.387 63.0508ZM145.283 63.6681H147.389L147.049 63.9646H145.243L145.283 63.6681ZM145.191 64.2729H146.683L146.382 64.5341H145.152L145.191 64.2729ZM145.924 64.8902C145.776 64.9694 145.618 65.0087 145.452 65.0087H145.086L145.099 64.8902H145.924Z" fill="white"/>
</g>
<mask id="mask7_72_317" style="mask-type:alpha" maskUnits="userSpaceOnUse" x="155" y="57" width="8" height="9">
<path d="M155.002 57.4058H162.551V65.0085H155.002V57.4058Z" fill="white"/>
</mask>
<g mask="url(#mask7_72_317)">
<path fill-rule="evenodd" clip-rule="evenodd" d="M157.894 60.5841H158.98L158.901 61.1065H157.816L157.894 60.5841ZM157.803 61.2014H158.887L158.81 61.6752H157.723L157.803 61.2014ZM157.71 61.818H158.796L158.731 62.2447H157.645L157.71 61.818ZM157.606 62.4353H158.692L158.64 62.8141H157.554L157.606 62.4353ZM157.515 63.051H158.601L158.548 63.3828H157.462L157.515 63.051ZM157.408 63.6683H158.495L158.455 63.9648H157.37L157.408 63.6683ZM157.318 64.2731H158.404L158.364 64.5343H157.279L157.318 64.2731ZM157.214 65.0089L157.227 64.8904H158.313L158.3 65.0089H157.214ZM162.329 58.8639H159.254L158.993 60.5363H157.908L158.168 58.8639H155.002L155.225 57.4057H162.551L162.329 58.8639Z" fill="white"/>
</g>
<path fill-rule="evenodd" clip-rule="evenodd" d="M167.353 60.5366H166.097L166.593 57.4053H167.85L167.353 60.5366ZM166.097 60.5844H167.353L167.274 61.1068H166.005L166.097 60.5844ZM165.993 61.201H167.261L167.183 61.6755H165.928L165.993 61.201ZM165.901 61.8183H167.169L167.104 62.245H165.834L165.901 61.8183ZM165.808 62.4348H167.078L167.013 62.8145H165.757L165.808 62.4348ZM165.717 63.0513H166.973L166.921 63.3831H165.666L165.717 63.0513ZM165.613 63.6679H172.429L172.377 63.9644H165.573L165.613 63.6679ZM165.522 64.2734H172.324L172.284 64.5346H165.482L165.522 64.2734ZM165.417 65.0084L165.429 64.89H172.232L172.219 65.0084H165.417Z" fill="white"/>
<mask id="mask8_72_317" style="mask-type:alpha" maskUnits="userSpaceOnUse" x="171" y="57" width="8" height="9">
<path d="M171.316 57.4058H178.864V65.0085H171.316V57.4058Z" fill="white"/>
</mask>
<g mask="url(#mask8_72_317)">
<path fill-rule="evenodd" clip-rule="evenodd" d="M174.207 60.5841H175.294L175.214 61.1065H174.129L174.207 60.5841ZM174.116 61.2014H175.2L175.123 61.6752H174.037L174.116 61.2014ZM174.024 61.818H175.11L175.045 62.2447H173.959L174.024 61.818ZM173.919 62.4353H175.006L174.953 62.8142H173.867L173.919 62.4353ZM173.828 63.0511H174.914L174.861 63.3829H173.776L173.828 63.0511ZM173.723 63.6684H174.809L174.77 63.9649H173.684L173.723 63.6684ZM173.631 64.2731H174.718L174.678 64.5343H173.592L173.631 64.2731ZM173.527 65.0089L173.54 64.8905H174.626L174.613 65.0089H173.527ZM178.642 58.864H175.567L175.307 60.5363H174.221L174.481 58.864H171.316L171.539 57.4058H178.864L178.642 58.864Z" fill="white"/>
</g>
<mask id="mask9_72_317" style="mask-type:alpha" maskUnits="userSpaceOnUse" x="178" y="57" width="9" height="9">
<path d="M178.799 57.4058H186.951V65.0085H178.799V57.4058Z" fill="white"/>
</mask>
<g mask="url(#mask9_72_317)">
<path fill-rule="evenodd" clip-rule="evenodd" d="M184.243 60.5841H185.015L184.412 61.1065H183.627L184.243 60.5841ZM183.523 61.2014H184.295L183.745 61.6752H182.96L183.523 61.2014ZM182.79 61.818H183.588L183.091 62.2447H182.294L182.79 61.818ZM182.07 62.4353H182.868L182.423 62.8142H181.627L182.07 62.4353ZM181.339 63.051H182.148L181.769 63.3828H180.945L181.339 63.051ZM180.619 63.6684H181.442L181.089 63.9649H180.265L180.619 63.6684ZM185.811 57.4058C186.118 57.4058 186.383 57.485 186.61 57.6426C186.837 57.8011 186.951 58.0184 186.951 58.296C186.951 58.4851 186.882 58.6937 186.748 58.9236C186.612 59.1534 186.388 59.402 186.073 59.6711L185.066 60.5363H184.295L185.537 59.4813C185.702 59.3393 185.786 59.2161 185.786 59.1134C185.786 59.0342 185.74 58.9738 185.649 58.9298C185.558 58.8859 185.432 58.8639 185.275 58.8639H180.828L180.566 60.5363H179.48L179.977 57.4058H185.811ZM179.48 60.5841H180.553L180.475 61.1065H179.389L179.48 60.5841ZM179.376 61.2014H180.461L180.383 61.6752H179.311L179.376 61.2014ZM179.285 61.818H180.369L180.304 62.2447H179.218L179.285 61.818ZM179.192 62.4353H180.278L180.213 62.8142H179.14L179.192 62.4353ZM179.101 63.051H180.174L180.121 63.3828H179.048L179.101 63.051ZM178.997 63.6684H180.081L180.03 63.9649H178.958L178.997 63.6684ZM178.905 64.2731H180.736L180.436 64.5343H178.866L178.905 64.2731ZM178.799 65.0089L178.813 64.8905H180.017L179.886 65.0089H178.799Z" fill="white"/>
</g>
<path fill-rule="evenodd" clip-rule="evenodd" d="M97.2168 47.1618V46.9336C97.1597 46.7806 97.0619 46.6543 96.9218 46.5523L96.3759 46.0943H99.1089L99.2767 46.2472C99.6972 46.5265 100.035 46.8324 100.286 47.1618H97.2168ZM94.1464 44.1121H96.8794L98.2255 45.3318H95.5349L94.1464 44.1121ZM91.8762 42.1292H94.6092L96.1648 43.5018H93.4317L91.8762 42.1292ZM89.6476 40.147H92.3806L94.104 41.6719H91.3718L89.6476 40.147ZM90.152 38.1648L92.044 39.8419H89.311L87.419 38.1648H90.152ZM82.793 34.0852C82.2324 33.7291 81.8188 33.311 81.5532 32.8278C81.2859 32.3446 81.1535 31.8489 81.1535 31.3406C81.1535 30.9084 81.2435 30.4895 81.4269 30.0824C81.6086 29.6761 81.8889 29.3137 82.2678 28.9961C82.6459 28.6784 83.1088 28.4234 83.6547 28.2336C84.2023 28.0422 84.8538 27.9465 85.6108 27.9465H104.281L103.566 32.6364H85.9049C85.5961 32.6364 85.3435 32.7 85.1488 32.8278C84.9515 32.9541 84.8538 33.1071 84.8538 33.2843C84.8538 33.4883 84.9654 33.653 85.1903 33.7801L89.9841 38.0119H87.2503L82.793 34.0852ZM100.791 48.0772C100.875 48.4333 100.916 48.751 100.916 49.0302H78.5884L78.7147 48.0772H100.791ZM100.707 50.0209C100.651 50.1739 100.587 50.3206 100.516 50.4594C100.446 50.5998 100.356 50.7339 100.244 50.8602H78.2942L78.4197 50.0209H100.707ZM98.6884 52.0039C98.0992 52.2588 97.3561 52.3851 96.4589 52.3851H78.084L78.1264 52.0039H98.6884Z" fill="white"/>
<path fill-rule="evenodd" clip-rule="evenodd" d="M129.974 38.1645H132.37L132.076 39.8416H129.68L129.974 38.1645ZM129.637 40.1467H132.034L131.824 41.6716H129.426L129.637 40.1467ZM129.342 42.1296H131.739L131.529 43.5015H129.132L129.342 42.1296ZM129.048 44.1126H131.445L131.278 45.3315H128.88L129.048 44.1126ZM128.754 46.094H131.15L130.982 47.1615H128.586L128.754 46.094ZM128.417 48.0769H130.815L130.688 49.0299H128.292L128.417 48.0769ZM128.122 50.0206H130.52L130.393 50.8599H127.997L128.122 50.0206ZM127.829 52.0036L130.226 52.3848H127.787L127.829 52.0036ZM130.393 28.9769C131.095 28.2906 131.894 27.947 132.791 27.947H133.968L132.37 38.0116H129.974L130.815 32.7891L124.675 38.0116H119.882L130.393 28.9769ZM119.713 38.1645H124.507L122.53 39.8416H117.779L119.713 38.1645ZM117.401 40.1467H122.194L120.386 41.6716H115.634L117.401 40.1467ZM115.13 42.1296H119.839L118.242 43.5015H113.533L115.13 42.1296ZM112.817 44.1126H117.527L116.097 45.3315H111.388L112.817 44.1126ZM110.505 46.094H115.172L113.911 47.1615H109.285L110.505 46.094ZM108.234 48.0769H112.859L111.724 49.0299H107.098L108.234 48.0769ZM105.963 50.0206H110.588L109.579 50.8599H104.996L105.963 50.0206ZM103.229 52.3848L103.65 52.0036H108.234L107.814 52.3848H103.229Z" fill="white"/>
<path fill-rule="evenodd" clip-rule="evenodd" d="M140.822 38.0119H136.785L138.383 27.9465H142.42L140.822 38.0119ZM136.785 38.1648H140.822L140.57 39.8419H136.491L136.785 38.1648ZM136.448 40.147H140.528L140.276 41.6719H136.239L136.448 40.147ZM136.154 42.1299H140.233L140.022 43.5018H135.945L136.154 42.1299ZM135.861 44.1121H139.939L139.728 45.3318H135.691L135.861 44.1121ZM135.566 46.0943H139.603L139.434 47.1618H135.397L135.566 46.0943ZM135.229 48.0772H157.138L156.969 49.0302H135.104L135.229 48.0772ZM134.935 50.0209H156.802L156.675 50.8602H134.809L134.935 50.0209ZM134.6 52.3851L134.641 52.0039H156.507L156.465 52.3851H134.6Z" fill="white"/>
<path fill-rule="evenodd" clip-rule="evenodd" d="M180.391 47.1618V46.9335C180.335 46.7805 180.236 46.6543 180.096 46.5523L179.55 46.0942H182.284L182.451 46.2472C182.871 46.5264 183.209 46.8323 183.461 47.1618H180.391ZM177.321 44.112H180.054L181.4 45.3318H178.709L177.321 44.112ZM175.05 42.1291H177.783L179.339 43.5018H176.607L175.05 42.1291ZM172.822 40.1469H175.556L177.278 41.6718H174.546L172.822 40.1469ZM173.326 38.1648L175.218 39.8418H172.485L170.593 38.1648H173.326ZM165.967 34.0851C165.407 33.729 164.993 33.3109 164.728 32.8277C164.461 32.3446 164.328 31.8488 164.328 31.3405C164.328 30.9083 164.419 30.4895 164.601 30.0824C164.783 29.6761 165.063 29.3137 165.443 28.996C165.821 28.6783 166.282 28.4234 166.83 28.2336C167.377 28.0422 168.028 27.9465 168.785 27.9465H187.455L186.74 32.6364H169.08C168.77 32.6364 168.518 32.6999 168.322 32.8277C168.126 32.954 168.028 33.107 168.028 33.2843C168.028 33.4882 168.14 33.6529 168.365 33.78L173.158 38.0118H170.425L165.967 34.0851ZM183.966 48.0771C184.049 48.4333 184.09 48.7509 184.09 49.0302H161.764L161.888 48.0771H183.966ZM183.881 50.0209C183.825 50.1738 183.762 50.3205 183.691 50.4593C183.621 50.5998 183.53 50.7339 183.418 50.8602H161.469L161.594 50.0209H183.881ZM181.863 52.0038C181.274 52.2587 180.53 52.385 179.633 52.385H161.258L161.301 52.0038H181.863Z" fill="white"/>
<mask id="mask10_72_317" style="mask-type:alpha" maskUnits="userSpaceOnUse" x="0" y="0" width="72" height="65">
<path d="M0 0H71.6288V64.947H0V0Z" fill="white"/>
</mask>
<g mask="url(#mask10_72_317)">
<path fill-rule="evenodd" clip-rule="evenodd" d="M56.9225 45.5301L69.0856 56.9203V63.2441H63.0469L50.4451 51.3331L56.3056 46.0816L56.9225 45.5301ZM24.0788 47.2479L20.0559 50.9605L21.0603 51.8092L8.45251 62.6362H2.41723V57.6514L14.9446 46.1686L16.636 47.7978L20.6459 44.1621L7.64705 32.4739L35.7748 7.29564L47.0823 17.3971L63.8497 2.43084H69.0856V7.54116L52.55 22.287L63.8497 32.3766L35.6476 57.6514L24.0788 47.2479ZM2.55133 7.53959L2.41723 2.06923H8.58834L20.5931 13.5386L14.8996 18.7407L2.55133 7.53959ZM71.6292 32.3515L58.2133 20.3676L70.8254 9.24329V0.973432H61.8374L49.2036 12.3189L35.414 0L22.262 12.0138L9.76407 0.364743H0.64021V8.51381L13.3562 20.1511L0 32.3515L13.466 44.8022L0 56.6771V64.947H8.98977L22.3113 52.9811L35.2514 64.9462L49.1284 52.512L62.0779 64.5815H71.2035V56.4316L58.1181 44.4579L71.6292 32.3515Z" fill="white"/>
</g>
<path fill-rule="evenodd" clip-rule="evenodd" d="M19.1827 49.6836C18.9335 49.6836 18.6809 49.5887 18.5018 49.4028C18.1748 49.0616 18.2111 48.5439 18.5866 48.2442C18.7129 48.1462 31.2688 38.0887 33.8444 29.9373L33.8824 29.8196L33.9542 29.7168C34.0831 29.5278 34.1532 29.2533 34.1108 29.1984C34.1065 29.1921 33.4741 28.563 29.4901 29.4015C28.5289 29.687 25.5337 30.4416 24.403 29.0925C23.4574 27.9614 24.448 26.3494 25.2707 25.2364C25.4792 24.9328 30.8354 17.1603 39.544 13.7207C40.1807 13.4626 41.0528 13.3881 41.5719 13.956C42.2865 14.742 41.7735 16.0692 39.7421 18.6851C39.4549 19.0569 38.8908 19.1448 38.4798 18.8859C38.0741 18.6239 37.972 18.1102 38.2627 17.7407C39.1676 16.5728 39.6192 15.8409 39.845 15.3993C31.9047 18.7212 26.8479 26.0474 26.796 26.1243C25.6696 27.6421 25.8409 28.0963 25.8443 28.1002C26.0598 28.3293 27.5703 28.2516 28.9589 27.8335L29.0393 27.8116C32.6764 27.0428 34.758 27.1817 35.5911 28.2532C36.2685 29.1262 35.7702 30.1357 35.5548 30.4887C32.7664 39.0841 20.3143 49.0553 19.7805 49.4812C19.6075 49.6146 19.3946 49.6836 19.1827 49.6836Z" fill="white"/>
<path fill-rule="evenodd" clip-rule="evenodd" d="M31.1444 52.1458C30.8952 52.1458 30.6435 52.0509 30.4635 51.8658C30.1382 51.5269 30.1728 51.0061 30.5483 50.7064C30.6763 50.6084 43.2348 40.5509 45.8061 32.401L45.8415 32.2826L45.9142 32.1806C46.0431 31.9916 46.1167 31.7163 46.0691 31.6606C46.0665 31.6551 45.4367 31.0252 41.4492 31.8661C40.4932 32.1516 37.4937 32.9054 36.363 31.5562C35.4191 30.4259 36.4071 28.8124 37.2342 27.6994C37.4392 27.3942 42.7971 19.6233 51.5057 16.1821C52.1442 15.9264 53.0154 15.8495 53.5362 16.4174C54.2491 17.2065 53.7369 18.5314 51.7055 21.1473C51.4183 21.5183 50.8525 21.6086 50.4415 21.3481C50.0332 21.0861 49.9346 20.5739 50.2244 20.2053C51.1293 19.0389 51.5809 18.3055 51.8067 17.8631C43.8664 21.185 38.8053 28.512 38.756 28.5865C37.633 30.1043 37.8026 30.5577 37.806 30.5648C38.0223 30.7922 39.532 30.7122 40.9206 30.2934L40.9984 30.2745C44.6398 29.5035 46.7179 29.6439 47.5528 30.7177C48.2328 31.5908 47.731 32.5971 47.5121 32.954C44.7281 41.5439 32.2725 51.5214 31.7396 51.9418C31.5718 52.0768 31.3563 52.1458 31.1444 52.1458Z" fill="white"/>
</svg>
